<svg xmlns="http://www.w3.org/2000/svg" viewBox="0 0 1600 900" preserveAspectRatio="xMidYMid slice">
  <defs>
    <radialGradient id="glowA" cx="72%" cy="20%" r="58%">
      <stop offset="0" stop-color="#d7b7ff" stop-opacity=".24"/>
      <stop offset=".42" stop-color="#8d64ff" stop-opacity=".08"/>
      <stop offset="1" stop-color="#050705" stop-opacity="0"/>
    </radialGradient>
    <radialGradient id="glowB" cx="18%" cy="78%" r="48%">
      <stop offset="0" stop-color="#b7f34a" stop-opacity=".16"/>
      <stop offset=".44" stop-color="#4d6b34" stop-opacity=".06"/>
      <stop offset="1" stop-color="#050705" stop-opacity="0"/>
    </radialGradient>
    <linearGradient id="veil" x1="0" y1="0" x2="1" y2="1">
      <stop offset="0" stop-color="#050705"/>
      <stop offset=".55" stop-color="#080a08"/>
      <stop offset="1" stop-color="#020302"/>
    </linearGradient>
    <filter id="soft" x="-20%" y="-20%" width="140%" height="140%">
      <feGaussianBlur stdDeviation="18"/>
    </filter>
  </defs>
  <rect width="1600" height="900" fill="url(#veil)"/>
  <rect width="1600" height="900" fill="url(#glowA)"/>
  <rect width="1600" height="900" fill="url(#glowB)"/>
  <g opacity=".24" filter="url(#soft)">
    <path d="M-120 610 C 220 420, 510 445, 820 530 S 1370 690, 1740 438" fill="none" stroke="#d9c4ff" stroke-width="22"/>
    <path d="M-160 660 C 260 500, 560 560, 840 625 S 1340 760, 1720 540" fill="none" stroke="#b7f34a" stroke-width="13" opacity=".35"/>
  </g>
  <g opacity=".12">
    <circle cx="210" cy="190" r="2" fill="#fff"/>
    <circle cx="364" cy="124" r="1.5" fill="#fff"/>
    <circle cx="580" cy="206" r="1.3" fill="#fff"/>
    <circle cx="1308" cy="138" r="1.7" fill="#fff"/>
    <circle cx="1420" cy="302" r="1.4" fill="#fff"/>
    <circle cx="980" cy="102" r="1.2" fill="#fff"/>
  </g>
</svg>
